<?xml version="1.0" encoding="utf-8"?>
<!-- Generator: Adobe Illustrator 18.0.0, SVG Export Plug-In . SVG Version: 6.00 Build 0)  -->
<!DOCTYPE svg PUBLIC "-//W3C//DTD SVG 1.0//EN" "http://www.w3.org/TR/2001/REC-SVG-20010904/DTD/svg10.dtd">
<svg version="1.0" id="Layer_1" xmlns="http://www.w3.org/2000/svg" xmlns:xlink="http://www.w3.org/1999/xlink" x="0px" y="0px"
	 viewBox="0 0 673.3 120" enable-background="new 0 0 673.3 120" xml:space="preserve">
<g>
	<path fill="#FFFFFF" d="M57.6,17.5C55.8,50,56.5,78.1,59.8,102c0.1,0.6-0.1,1.1-0.4,1.6c-0.4,0.5-0.8,0.8-1.5,0.8
		c-0.6,0.1-1.2-0.1-1.6-0.4c-0.5-0.4-0.8-0.9-0.8-1.5c-1.6-12.6-2.6-26.6-2.9-41.8c-8.6,1-17.5,1.5-26.7,1.5
		c0.2,16.2,1.5,29.8,3.9,41c0.1,0.6,0,1.2-0.4,1.7c-0.3,0.5-0.8,0.8-1.4,0.9c-0.6,0.1-1.2,0-1.6-0.3c-0.5-0.3-0.8-0.8-1-1.3
		c-1.3-6.3-2.2-13.3-2.8-21.1c-0.6-7.8-0.9-14.2-1-19.2c0-5.1,0-12.4,0.1-22c0.1-9.6,0.2-16.1,0.2-19.5c0-0.6,0.2-1.1,0.7-1.5
		c0.4-0.4,0.9-0.7,1.5-0.7c0.6,0,1.1,0.2,1.5,0.7c0.4,0.4,0.7,1,0.7,1.5c0,3.8-0.1,9.7-0.2,17.6c-0.1,7.9-0.2,13.9-0.2,17.9
		c9.2,0,18.1-0.5,26.6-1.6c-0.2-12.9,0.1-25.8,0.8-38.9c0-0.6,0.2-1,0.7-1.5c0.5-0.4,1-0.6,1.6-0.6c0.6,0,1,0.2,1.5,0.7
		C57.4,16.4,57.6,16.9,57.6,17.5z"/>
	<path fill="#FFFFFF" d="M64.9,68.9c0.9-5.3,2.3-9.9,4.4-13.9c3.6-7.2,8.3-11.2,13.9-11.9c2.7-0.3,4.9,0.1,6.7,1.2
		c1.8,1.1,3.1,2.8,3.8,5c1.2,3.9,0.7,8.3-1.6,13.2c-2.3,5.1-5.7,8.7-10.2,10.9c-4.2,2-8.6,2.3-13.3,1c-0.1,0.7-0.1,1.5-0.1,2.3
		c-0.2,7.6,1,13.7,3.8,18.2c2.9,4.7,7.1,6.6,12.6,5.7c3.2-0.5,6.1-1.9,8.8-4.4c2.7-2.4,5.1-5.4,7-8.8c0.3-0.5,0.8-0.8,1.3-1
		c0.6-0.2,1.1-0.1,1.6,0.2c0.5,0.3,0.9,0.7,1,1.3c0.2,0.6,0.1,1.1-0.1,1.7c-2.3,3.8-5,7.2-8.2,10.1c-3.2,2.9-6.8,4.7-10.8,5.3
		c-7.5,1.1-13.2-1.5-17.1-7.8c-3.2-5.3-4.7-12.1-4.4-20.6c0-1.4,0.1-2.7,0.2-4.1c-0.8-0.7-1-1.6-0.5-2.5
		C64.1,69.4,64.5,69,64.9,68.9z M69.1,69.8c3.9,1.4,7.5,1.3,10.9-0.4c3.6-1.8,6.3-4.7,8.1-8.8c1.8-3.9,2.2-7.2,1.3-10.1
		c-0.8-2.5-2.7-3.6-5.8-3.2c-4,0.5-7.6,3.6-10.5,9.5C71.2,60.7,69.9,65,69.1,69.8z"/>
	<path fill="#FFFFFF" d="M142.3,49.4c-3.6-2.8-7.6-2.7-12,0.5c-4.4,3.2-8.3,8.3-11.9,15.5c-3.5,7.1-5.5,13.9-5.9,20.4
		c-0.5,6.6,0.8,11,3.9,13.2c2.7,2,5.5,1.9,8.1-0.2c2.7-2.2,5.3-6.2,7.9-12c1.9-4.2,3.8-9.5,5.9-16c2.2-6.8,3.4-10.4,3.6-10.8v-0.4
		v-0.6v-0.5c0.1-0.7,0.2-1.3,0.5-1.8c0.6-1,1.5-1.5,2.8-1.5c0.7,0.1,1.3,0.5,1.7,1.2c0.2,0.2,0.2,0.4,0.2,0.7
		c0.1,0.2,0.1,0.4,0.2,0.8c0,0.4,0.1,1.1,0.1,2.2c0.1,3.3,0.2,6.3,0.4,9.1c0.1,1.5,0.2,3.8,0.2,6.7c0.2,3.2,0.3,5.7,0.5,7.4
		c0.6,8.2,1.3,14.8,2.3,19.5c0.1,0.6,0,1.1-0.4,1.6c-0.3,0.5-0.8,0.8-1.4,0.9s-1.2,0-1.6-0.3c-0.5-0.3-0.8-0.8-1-1.5
		c-0.9-4.8-1.7-11.5-2.3-20l-0.4-7.4c-0.2-3.2-0.3-5.4-0.4-6.7v-0.2l-0.8,2.8c-2.2,6.7-4.2,12.2-6.2,16.5
		c-2.9,6.4-5.9,10.9-9.1,13.5c-4.4,3.7-8.9,3.9-13.6,0.6c-4.3-3.2-6.1-8.9-5.6-17.1c0.6-7.1,2.7-14.5,6.4-22.1
		c3.9-7.8,8.3-13.5,13.3-17.1c6.1-4.4,11.8-4.6,17.1-0.4c0.5,0.4,0.8,0.9,0.8,1.5c0.1,0.6-0.1,1.1-0.5,1.6c-0.4,0.5-0.9,0.8-1.5,0.8
		C143.3,49.9,142.8,49.8,142.3,49.4z"/>
	<path fill="#FFFFFF" d="M156.2,102.1v-1.9v-1.1c-0.1-0.2-0.1-0.3-0.1-0.5v-0.1v-0.1v-0.1v-0.1V98v-0.2v-0.2v-3.6
		c0-1.5,0-4.3-0.1-8.2c0-3.9-0.1-6.9-0.1-9c0.1-4.3,0.2-11,0.5-20c0-0.6,0.2-1,0.7-1.5c0.4-0.4,1-0.6,1.6-0.6s1.1,0.2,1.5,0.7
		c0.4,0.4,0.6,1,0.6,1.6c-0.2,5.9-0.3,10.2-0.4,12.9l0.2-0.7c4.4-13,11.5-21.7,21.3-26.1c0.5-0.2,1-0.3,1.6-0.1
		c0.6,0.2,1,0.6,1.2,1.1c0.2,0.5,0.3,1.1,0.1,1.6c-0.2,0.6-0.6,1-1.2,1.2c-8.8,4-15.1,11.8-18.9,23.5c-2.7,8.3-4.1,18.5-4.2,30.7
		v0.1v0.4v0.6v0.4v0.4v0.1v0.1v0.1c0,0.1,0,0.2-0.1,0.2c0,0.2-0.1,0.5-0.4,0.8c-0.4,0.5-0.9,0.7-1.6,0.7c-0.7,0.1-1.3-0.2-1.8-0.7
		c-0.2-0.3-0.4-0.6-0.4-0.8c-0.1-0.1-0.1-0.2-0.1-0.4v-0.1v-0.2V102.1z"/>
	<path fill="#FFFFFF" d="M191.9,40.4c-2.3,0-4.6,0.2-6.9,0.5c-0.6,0.1-1.1-0.1-1.6-0.4s-0.8-0.8-0.8-1.5c-0.1-0.6,0.1-1.2,0.4-1.6
		c0.4-0.5,0.9-0.8,1.5-0.8c2.5-0.3,5-0.5,7.5-0.5c0.4-7.3,0.6-12.6,0.7-15.9c0-0.6,0.2-1,0.7-1.5c0.4-0.4,1-0.6,1.6-0.6
		c0.6,0,1.1,0.2,1.5,0.7c0.4,0.4,0.6,1,0.6,1.6c-0.1,3.4-0.3,8.6-0.7,15.6c2.3,0.1,5.1,0.2,8.1,0.5c0.6,0.1,1.2,0.3,1.6,0.8
		c0.4,0.4,0.6,1,0.5,1.6c-0.1,0.6-0.3,1.1-0.8,1.5c-0.4,0.4-1,0.6-1.5,0.5c-3.2-0.2-5.8-0.4-8-0.5c-1.1,22.5-0.8,39.5,0.6,51
		c0.6,4.5,2.1,7.8,4.5,9.9c2.4,2.1,5.4,2.1,8.9,0.1c0.5-0.2,1-0.3,1.6-0.1c0.6,0.2,1,0.5,1.3,1c0.3,0.5,0.3,1,0.2,1.6
		c-0.2,0.6-0.5,1.1-1,1.4c-5.3,3-9.9,2.7-13.9-0.7c-3.2-2.8-5.2-7.1-5.9-12.7C191.1,80.2,190.9,63,191.9,40.4z"/>
	<path fill="#FFFFFF" d="M246.2,56.9c-0.6-3.1-2.4-5.4-5.2-6.8c-2.8-1.5-6-2.1-9.5-1.8c-3.6,0.4-6.4,1.6-8.7,3.5
		c-2.2,1.9-3.2,4.4-3,7.3c0.2,2.6,1.7,5.4,4.5,8.4c1.5,1.4,4.7,4.1,9.8,8.2c2.1,1.7,3.8,3.2,5.2,4.4c1.3,1.2,2.7,2.8,4.2,4.7
		c1.5,1.9,2.5,3.9,3,5.9c0.5,2.1,0.6,4.2,0.2,6.5c-0.6,3.3-2.4,5.7-5.2,7c-2.3,1.1-5.1,1.4-8.2,0.8c-3-0.6-5.8-1.7-8.4-3.5
		c-2.6-1.8-4.4-4-5.6-6.5c-0.2-0.6-0.1-1.1,0.1-1.7c0.2-0.6,0.6-0.9,1.2-1.2c0.6-0.2,1.1-0.2,1.7,0c0.6,0.2,1,0.6,1.2,1.2
		c0.7,1.8,2.1,3.4,4.1,4.7c2,1.4,4.1,2.3,6.5,2.7c2.3,0.4,4.1,0.2,5.6-0.5c1.5-0.7,2.4-2,2.7-3.8c0.6-3.1,0-5.9-1.9-8.4
		c-1.9-2.5-5-5.5-9.2-8.9c-5.4-4.4-8.8-7.2-10.1-8.6c-3.6-3.7-5.5-7.4-5.8-11.2c-0.3-4.4,1.1-7.9,4.2-10.6c3.2-2.7,6.9-4.3,11.3-4.7
		c4.4-0.4,8.5,0.3,12.3,2.4c3.8,2,6.2,5.2,7.2,9.6c0.1,0.6,0,1.1-0.4,1.6c-0.3,0.5-0.8,0.8-1.3,1c-0.6,0.1-1.1,0-1.6-0.3
		C246.7,57.9,246.4,57.4,246.2,56.9z"/>
	<path fill="#FFFFFF" d="M285.4,52.3c1.7,0.1,3.6,0.1,5.7,0c-0.2-6.1-0.2-11.9-0.1-17.2c0.2-6.1,0.9-10.8,2.3-14.2
		c1-2.7,2.5-4.7,4.5-5.9c2.3-1.5,5.1-1.7,8.2-0.8c4.1,1.1,7.1,4.2,9,9.2c0.2,0.6,0.1,1.1-0.1,1.6c-0.2,0.5-0.6,0.9-1.2,1.1
		c-0.6,0.2-1.1,0.2-1.6-0.1c-0.5-0.2-0.9-0.6-1.2-1.2c-1.4-3.6-3.4-5.8-6.1-6.5c-1.9-0.5-3.5-0.4-4.7,0.4c-1.1,0.7-2.1,2-2.8,3.9
		c-1.2,2.9-1.9,7.1-1.9,12.6c-0.1,5.3,0,11,0.1,17.1c1-0.1,2.4-0.2,4.3-0.2c1.9-0.1,3.3-0.2,4.1-0.2c0.6,0,1.2,0.2,1.6,0.6
		c0.4,0.4,0.7,0.9,0.7,1.5s-0.2,1.1-0.6,1.6c-0.4,0.4-0.9,0.7-1.5,0.7c-0.8,0-2.2,0.1-4.1,0.2c-1.9,0.1-3.4,0.2-4.4,0.3
		c0.2,4.7,0.4,9.6,0.7,14.8c0.3,5.2,0.7,11,1.2,17.6l1.1,14.8c0,0.6-0.2,1.1-0.5,1.5c-0.4,0.4-0.8,0.7-1.5,0.7
		c-0.6,0-1.1-0.1-1.6-0.5c-0.4-0.4-0.7-0.9-0.8-1.5c-0.2-3.2-0.6-8.1-1.1-14.7l-1.2-17.7c-0.3-5.3-0.6-10.2-0.7-14.9
		c-2.2,0.1-4.2,0.1-6.1,0c-0.6,0-1-0.2-1.5-0.7c-0.4-0.4-0.6-1-0.6-1.6c0-0.6,0.2-1.1,0.7-1.5C284.2,52.5,284.7,52.3,285.4,52.3z"/>
	<path fill="#FFFFFF" d="M335.7,44.5c5.1,1.2,9.3,3.5,12.5,7c3.3,3.4,5.5,7.2,6.7,11.3c1.1,4.2,1.5,8.6,1.2,13.2
		c-0.5,7.2-2.6,13.6-6.5,19.2c-3.8,5.6-8.8,8.7-14.7,9.2c-6.5,0.6-11.5-2-14.9-7.8c-2.8-4.7-4.1-10.9-3.8-18.5
		c0.2-7.3,1.9-14.1,5-20.6c3-6.6,7-11.1,11.9-13.5C334.1,43.5,335,43.7,335.7,44.5z M333.9,48.5c-3.7,2.3-6.8,6.2-9.2,11.8
		c-2.4,5.6-3.8,11.6-4,17.9c-0.2,6.8,0.8,12.2,3.2,16.1c2.4,4.2,6.1,6.1,10.9,5.7c4.4-0.3,8.3-2.9,11.5-7.6
		c3.3-4.6,5.2-10.1,5.6-16.6c0.5-6.7-0.8-12.6-3.8-17.6C345.1,53.2,340.3,50,333.9,48.5z"/>
	<path fill="#FFFFFF" d="M362,102.1v-1.9v-1.1c-0.1-0.2-0.1-0.3-0.1-0.5v-0.1v-0.1v-0.1v-0.1V98v-0.2v-0.2v-3.6c0-1.5,0-4.3-0.1-8.2
		c0-3.9-0.1-6.9-0.1-9c0.1-4.3,0.2-11,0.5-20c0-0.6,0.2-1,0.7-1.5c0.4-0.4,1-0.6,1.6-0.6s1.1,0.2,1.5,0.7c0.4,0.4,0.6,1,0.6,1.6
		c-0.2,5.9-0.3,10.2-0.4,12.9l0.2-0.7c4.4-13,11.5-21.7,21.3-26.1c0.5-0.2,1-0.3,1.6-0.1c0.6,0.2,1,0.6,1.2,1.1
		c0.2,0.5,0.3,1.1,0.1,1.6c-0.2,0.6-0.6,1-1.2,1.2c-8.8,4-15.1,11.8-18.9,23.5c-2.7,8.3-4.1,18.5-4.2,30.7v0.1v0.4v0.6v0.4v0.4v0.1
		v0.1v0.1c0,0.1,0,0.2-0.1,0.2c0,0.2-0.1,0.5-0.4,0.8c-0.4,0.5-0.9,0.7-1.6,0.7c-0.7,0.1-1.3-0.2-1.8-0.7c-0.2-0.3-0.4-0.6-0.4-0.8
		c-0.1-0.1-0.1-0.2-0.1-0.4v-0.1v-0.2V102.1z"/>
	<path fill="#FFFFFF" d="M462.4,17.5c-1.8,32.5-1.1,60.7,2.2,84.5c0.1,0.6-0.1,1.1-0.4,1.6c-0.4,0.5-0.8,0.8-1.5,0.8
		c-0.6,0.1-1.2-0.1-1.6-0.4c-0.5-0.4-0.8-0.9-0.8-1.5c-1.6-12.6-2.6-26.6-2.9-41.8c-8.6,1-17.5,1.5-26.7,1.5
		c0.2,16.2,1.5,29.8,3.9,41c0.1,0.6,0,1.2-0.4,1.7c-0.3,0.5-0.8,0.8-1.4,0.9c-0.6,0.1-1.2,0-1.6-0.3c-0.5-0.3-0.8-0.8-1-1.3
		c-1.3-6.3-2.2-13.3-2.8-21.1c-0.6-7.8-0.9-14.2-1-19.2c0-5.1,0-12.4,0.1-22c0.1-9.6,0.2-16.1,0.2-19.5c0-0.6,0.2-1.1,0.7-1.5
		c0.4-0.4,0.9-0.7,1.5-0.7c0.6,0,1.1,0.2,1.5,0.7c0.4,0.4,0.7,1,0.7,1.5c0,3.8-0.1,9.7-0.2,17.6c-0.1,7.9-0.2,13.9-0.2,17.9
		c9.2,0,18.1-0.5,26.6-1.6c-0.2-12.9,0.1-25.8,0.8-38.9c0-0.6,0.2-1,0.7-1.5c0.5-0.4,1-0.6,1.6-0.6c0.6,0,1,0.2,1.5,0.7
		C462.2,16.4,462.4,16.9,462.4,17.5z"/>
	<path fill="#FFFFFF" d="M469.7,68.9c0.9-5.3,2.3-9.9,4.4-13.9c3.6-7.2,8.3-11.2,13.9-11.9c2.7-0.3,4.9,0.1,6.7,1.2
		c1.8,1.1,3.1,2.8,3.8,5c1.2,3.9,0.7,8.3-1.6,13.2c-2.3,5.1-5.7,8.7-10.2,10.9c-4.2,2-8.6,2.3-13.3,1c-0.1,0.7-0.1,1.5-0.1,2.3
		c-0.2,7.6,1,13.7,3.8,18.2c2.9,4.7,7.1,6.6,12.6,5.7c3.2-0.5,6.1-1.9,8.8-4.4c2.7-2.4,5.1-5.4,7-8.8c0.3-0.5,0.8-0.8,1.3-1
		c0.6-0.2,1.1-0.1,1.6,0.2c0.5,0.3,0.9,0.7,1,1.3c0.2,0.6,0.1,1.1-0.1,1.7c-2.3,3.8-5,7.2-8.2,10.1c-3.2,2.9-6.8,4.7-10.8,5.3
		c-7.5,1.1-13.2-1.5-17.1-7.8c-3.2-5.3-4.7-12.1-4.4-20.6c0-1.4,0.1-2.7,0.2-4.1c-0.8-0.7-1-1.6-0.5-2.5
		C468.9,69.4,469.3,69,469.7,68.9z M473.9,69.8c3.9,1.4,7.5,1.3,10.9-0.4c3.6-1.8,6.3-4.7,8.1-8.8c1.8-3.9,2.2-7.2,1.3-10.1
		c-0.8-2.5-2.7-3.6-5.8-3.2c-4,0.5-7.6,3.6-10.5,9.5C476,60.7,474.7,65,473.9,69.8z"/>
	<path fill="#FFFFFF" d="M547.1,49.4c-3.6-2.8-7.6-2.7-12,0.5c-4.4,3.2-8.3,8.3-11.9,15.5c-3.5,7.1-5.5,13.9-5.9,20.4
		c-0.5,6.6,0.8,11,3.9,13.2c2.7,2,5.5,1.9,8.1-0.2c2.7-2.2,5.3-6.2,7.9-12c1.9-4.2,3.8-9.5,5.9-16c2.2-6.8,3.4-10.4,3.6-10.8v-0.4
		v-0.6v-0.5c0.1-0.7,0.2-1.3,0.5-1.8c0.6-1,1.5-1.5,2.8-1.5c0.7,0.1,1.3,0.5,1.7,1.2c0.2,0.2,0.2,0.4,0.2,0.7
		c0.1,0.2,0.1,0.4,0.2,0.8c0,0.4,0.1,1.1,0.1,2.2c0.1,3.3,0.2,6.3,0.4,9.1c0.1,1.5,0.2,3.8,0.2,6.7c0.2,3.2,0.3,5.7,0.5,7.4
		c0.6,8.2,1.3,14.8,2.3,19.5c0.1,0.6,0,1.1-0.4,1.6c-0.3,0.5-0.8,0.8-1.4,0.9s-1.2,0-1.6-0.3c-0.5-0.3-0.8-0.8-1-1.5
		c-0.9-4.8-1.7-11.5-2.3-20l-0.4-7.4c-0.2-3.2-0.3-5.4-0.4-6.7v-0.2l-0.8,2.8c-2.2,6.7-4.2,12.2-6.2,16.5
		c-2.9,6.4-5.9,10.9-9.1,13.5c-4.4,3.7-8.9,3.9-13.6,0.6c-4.3-3.2-6.1-8.9-5.6-17.1c0.6-7.1,2.7-14.5,6.4-22.1
		c3.9-7.8,8.3-13.5,13.3-17.1c6.1-4.4,11.8-4.6,17.1-0.4c0.5,0.4,0.8,0.9,0.8,1.5c0.1,0.6-0.1,1.1-0.5,1.6c-0.4,0.5-0.9,0.8-1.5,0.8
		C548.1,49.9,547.6,49.8,547.1,49.4z"/>
	<path fill="#FFFFFF" d="M560.9,102.1v-1.9v-1.1c-0.1-0.2-0.1-0.3-0.1-0.5v-0.1v-0.1v-0.1v-0.1V98v-0.2v-0.2v-3.6
		c0-1.5,0-4.3-0.1-8.2c0-3.9-0.1-6.9-0.1-9c0.1-4.3,0.2-11,0.5-20c0-0.6,0.2-1,0.7-1.5c0.4-0.4,1-0.6,1.6-0.6s1.1,0.2,1.5,0.7
		c0.4,0.4,0.6,1,0.6,1.6c-0.2,5.9-0.3,10.2-0.4,12.9l0.2-0.7c4.4-13,11.5-21.7,21.3-26.1c0.5-0.2,1-0.3,1.6-0.1
		c0.6,0.2,1,0.6,1.2,1.1c0.2,0.5,0.3,1.1,0.1,1.6c-0.2,0.6-0.6,1-1.2,1.2c-8.8,4-15.1,11.8-18.9,23.5c-2.7,8.3-4.1,18.5-4.2,30.7
		v0.1v0.4v0.6v0.4v0.4v0.1v0.1v0.1c0,0.1,0,0.2-0.1,0.2c0,0.2-0.1,0.5-0.4,0.8c-0.4,0.5-0.9,0.7-1.6,0.7c-0.7,0.1-1.3-0.2-1.8-0.7
		c-0.2-0.3-0.4-0.6-0.4-0.8c-0.1-0.1-0.1-0.2-0.1-0.4v-0.1v-0.2V102.1z"/>
	<path fill="#FFFFFF" d="M596.7,40.4c-2.3,0-4.6,0.2-6.9,0.5c-0.6,0.1-1.1-0.1-1.6-0.4s-0.8-0.8-0.8-1.5c-0.1-0.6,0.1-1.2,0.4-1.6
		c0.4-0.5,0.9-0.8,1.5-0.8c2.5-0.3,5-0.5,7.5-0.5c0.4-7.3,0.6-12.6,0.7-15.9c0-0.6,0.2-1,0.7-1.5c0.4-0.4,1-0.6,1.6-0.6
		c0.6,0,1.1,0.2,1.5,0.7c0.4,0.4,0.6,1,0.6,1.6c-0.1,3.4-0.3,8.6-0.7,15.6c2.3,0.1,5.1,0.2,8.1,0.5c0.6,0.1,1.2,0.3,1.6,0.8
		c0.4,0.4,0.6,1,0.5,1.6c-0.1,0.6-0.3,1.1-0.8,1.5c-0.4,0.4-1,0.6-1.5,0.5c-3.2-0.2-5.8-0.4-8-0.5c-1.1,22.5-0.8,39.5,0.6,51
		c0.6,4.5,2.1,7.8,4.5,9.9c2.4,2.1,5.4,2.1,8.9,0.1c0.5-0.2,1-0.3,1.6-0.1c0.6,0.2,1,0.5,1.3,1c0.3,0.5,0.3,1,0.2,1.6
		c-0.2,0.6-0.5,1.1-1,1.4c-5.3,3-9.9,2.7-13.9-0.7c-3.2-2.8-5.2-7.1-5.9-12.7C595.9,80.2,595.7,63,596.7,40.4z"/>
	<path fill="#FFFFFF" d="M651,56.9c-0.6-3.1-2.4-5.4-5.2-6.8c-2.8-1.5-6-2.1-9.5-1.8c-3.6,0.4-6.4,1.6-8.7,3.5
		c-2.2,1.9-3.2,4.4-3,7.3c0.2,2.6,1.7,5.4,4.5,8.4c1.5,1.4,4.7,4.1,9.8,8.2c2.1,1.7,3.8,3.2,5.2,4.4c1.3,1.2,2.7,2.8,4.2,4.7
		c1.5,1.9,2.5,3.9,3,5.9c0.5,2.1,0.6,4.2,0.2,6.5c-0.6,3.3-2.4,5.7-5.2,7c-2.3,1.1-5.1,1.4-8.2,0.8c-3-0.6-5.8-1.7-8.4-3.5
		c-2.6-1.8-4.4-4-5.6-6.5c-0.2-0.6-0.1-1.1,0.1-1.7c0.2-0.6,0.6-0.9,1.2-1.2c0.6-0.2,1.1-0.2,1.7,0c0.6,0.2,1,0.6,1.2,1.2
		c0.7,1.8,2.1,3.4,4.1,4.7c2,1.4,4.1,2.3,6.5,2.7c2.3,0.4,4.1,0.2,5.6-0.5c1.5-0.7,2.4-2,2.7-3.8c0.6-3.1,0-5.9-1.9-8.4
		c-1.9-2.5-5-5.5-9.2-8.9c-5.4-4.4-8.8-7.2-10.1-8.6c-3.6-3.7-5.5-7.4-5.8-11.2c-0.3-4.4,1.1-7.9,4.2-10.6c3.2-2.7,6.9-4.3,11.3-4.7
		c4.4-0.4,8.5,0.3,12.3,2.4c3.8,2,6.2,5.2,7.2,9.6c0.1,0.6,0,1.1-0.4,1.6c-0.3,0.5-0.8,0.8-1.3,1c-0.6,0.1-1.1,0-1.6-0.3
		C651.5,57.9,651.2,57.4,651,56.9z"/>
</g>
</svg>
