<?xml version="1.0" encoding="utf-8"?>
<!-- Generator: Adobe Illustrator 18.0.0, SVG Export Plug-In . SVG Version: 6.00 Build 0)  -->
<!DOCTYPE svg PUBLIC "-//W3C//DTD SVG 1.0//EN" "http://www.w3.org/TR/2001/REC-SVG-20010904/DTD/svg10.dtd">
<svg version="1.0" id="Layer_1" xmlns="http://www.w3.org/2000/svg" xmlns:xlink="http://www.w3.org/1999/xlink" x="0px" y="0px"
	 viewBox="0 0 200 200" enable-background="new 0 0 200 200" xml:space="preserve">
<path fill="#0872B9" d="M-2.6-1.9v204.7h204.1V-1.9H-2.6z M92,172.2c-1.9-10.2-16.4-31.3-27-44.9C54.3,113.6,30.4,100.2,28,77
	c-2.4-23.2,15.6-49.8,40.5-49.8s38.6,19.2,38.6,19.2s10.2-13.2,31.1-8.9c19.7,4,34.1,24.5,34.1,46.2
	C172.3,111.9,144.1,134.7,92,172.2z"/>
<path fill="none" stroke="#FFFFFF" stroke-miterlimit="10" d="M92,172.2c-1.9-10.2-16.4-31.3-27-44.9C54.3,113.6,30.4,100.2,28,77
	c-2.4-23.2,15.6-49.8,40.5-49.8s38.6,19.2,38.6,19.2s10.2-13.2,31.1-8.9c19.7,4,34.1,24.5,34.1,46.2
	C172.3,111.9,144.1,134.7,92,172.2z"/>
</svg>
