<?xml version="1.0" encoding="utf-8"?>
<!-- Generator: Adobe Illustrator 18.0.0, SVG Export Plug-In . SVG Version: 6.00 Build 0)  -->
<!DOCTYPE svg PUBLIC "-//W3C//DTD SVG 1.0//EN" "http://www.w3.org/TR/2001/REC-SVG-20010904/DTD/svg10.dtd">
<svg version="1.0" id="Layer_1" xmlns="http://www.w3.org/2000/svg" xmlns:xlink="http://www.w3.org/1999/xlink" x="0px" y="0px"
	 viewBox="0 0 244 150" enable-background="new 0 0 244 150" xml:space="preserve">
<g>
	<path fill-rule="evenodd" clip-rule="evenodd" fill="#FFFFFF" d="M11.6,79.8c0,3.1,0,6.1,0,9.2c0,2.3,0,4.6,0.1,7
		c0,1.4,0.1,2.8,0.1,4.2c0,0.4,0,0.9,0,1.3c0.1,1.4,0.2,2.8,0.3,4.3c0.2,1.7,0.4,3.4,0.6,5.1c0.3,1.9,0.7,3.9,1,5.8
		c1.2,4.5,2,8.7,3.3,13c0.8,2.3,1.6,4.7,2.4,7c0.5,1.3,1,2.6,1.5,3.8c0,0,0,0,0.1,0c1-1.9,2.5-3.7,3.8-5.5c2.7-3.8,5.8-7.3,8.4-11.1
		c1.1-1.5,2-3.1,2.9-4.8c1.7-2.9,2.6-6.5,3.3-10.3c0.3-1.3,0.2-2.6,0.4-4c0.2-1.2-0.1-4.6-0.5-5.2c-0.4-0.5-1.2-0.8-1.8-1.1
		c-1.3-0.6-2.5-1.2-3.8-1.9c-3-1.7-5.7-3.9-7.7-6.5C25,89,23.9,87.6,23.1,86c-0.4-0.9-0.6-1.7,0.2-2.3c1.3-1,3-1.7,4.8-2.2
		c0.5-0.1,1.5-0.4,2.1-0.2c1,1,2.1,1.9,3.1,2.9c2,1.6,4.2,3,6.7,4.1c2.4,1,5.1,1.7,7.9,2.2c1.2,0.1,2.4,0.3,3.6,0.4
		c1.8,0.3,5.2,0.2,6.9-0.2c1.2-0.3,2.5-0.4,3.7-0.8c3.6-1.1,6.5-2.5,9.3-4.5c1-0.7,2-1.4,2.7-2.4c-0.7-1.1-1.4-2.2-1.9-3.5
		c-1.6-3.9-1.7-9.9-1.7-15.3v-4.8c0-0.8,0-1.6,0-2.4c0.1-3.4,0.2-6.8,0.3-10.3c0.1-4.1,0.2-8.2,0.3-12.2v-4.1c0-1-0.1-1.9-0.1-2.9
		c-0.6-3.4-0.2-8.5-3.4-9.1c-0.6-0.1-1.3,0.1-1.7,0.2c-2.6,0.8-2.9,3.7-3.6,6.5c-1.1,4.9-1.5,9.8-2.4,14.9c-0.4,2.8-0.7,5.5-1.1,8.3
		c-0.4,2.3-0.5,4.6-1.2,6.6c-0.2,0.6-0.3,1.5-0.8,1.8c-0.1,0-0.1,0-0.2,0c-0.3-0.6-0.3-1.5-0.4-2.4c-0.1-1.8-0.3-3.6-0.4-5.4
		c0-0.7,0-1.5-0.1-2.2c-0.1-4.1-0.2-8.2-0.4-12.3c0-1.1,0-2.2-0.1-3.3c0-1.3,0-2.6-0.1-3.9c0-2.4,0-4.7-0.1-7.1c0-1,0-2,0-3
		c0-0.8-0.1-1.7-0.2-2.5C54.2,11,53.9,8,49.5,8c-0.3,0.1-0.6,0.1-0.9,0.2C48,8.3,47.3,8.7,47,9.2c-1.6,2.1-1.5,5.2-2,8.5
		c0,0.9-0.1,1.8-0.1,2.7c-0.5,8.3-1,16.6-1.4,24.9c0,0.7-0.1,1.4-0.1,2.2c-0.4,2.3-0.3,4.7-0.8,6.8c-0.2,1-0.3,2.4-1.1,2.8
		c-0.9,0-0.9-1.5-1.1-2.3c-0.4-1.9-0.2-4-0.5-6.1c0-0.8,0-1.7-0.1-2.5c-0.1-2.3-0.1-4.5-0.2-6.8c0-1.9-0.1-3.8-0.1-5.7
		c-0.2-4.6-0.4-9.2-0.7-13.8c0-0.7,0-1.3-0.1-2c-0.5-2.8-0.3-5.2-2.7-6.1c-0.5-0.2-1.4-0.4-2.1-0.3c-4.3,0.7-4.5,5.7-5.3,10
		c-0.4,2.2-0.2,4.6-0.5,7c0,0.8-0.1,1.6-0.1,2.4c0,1-0.1,1.9-0.1,2.9c0,1.7-0.1,3.4-0.1,5.1c0,2.3-0.1,4.6-0.1,7
		c-0.1,2.5-0.1,5-0.2,7.5c0,1,0,1.9-0.1,2.9c0,0.7-0.1,1.4-0.1,2.1c-0.3,1.8-0.2,3.6-0.5,5.3c-0.2,1.3-0.2,2.7-1.2,3.3
		c-1.5-0.1-1.9-3.6-2.2-5.1c-0.4-2-0.3-4.3-0.7-6.5c0-1-0.1-2-0.1-3c0-0.5,0-0.9,0-1.4V47c0.1-1.9,0.1-3.9,0.2-5.8
		c0-0.6,0-1.3,0-1.9c0-0.5,0-1-0.1-1.5c-0.3-1.8-0.6-3.4-2.2-4c-0.4-0.1-0.9-0.3-1.4-0.2c-2,0.5-3.3,3.8-4.1,5.7
		c-1.2,3-1.9,6.4-2.6,9.9c-0.2,1.6-0.5,3.2-0.7,4.9c-0.1,1.8-0.3,3.5-0.4,5.3c0,0.7,0,1.4,0,2.1c0,1.2,0,2.4,0,3.5
		c0,1.6,0,3.3,0.1,4.9C11.5,73.2,11.5,76.5,11.6,79.8 M41.5,71.3c1.2-3.2,3.5-5.5,6.6-6.8c0.7-0.2,1.4-0.4,2.1-0.6
		c0.4,0,0.8-0.1,1.3-0.2c5.9,0,9.5,2.7,11.3,6.8c0.7,1.7,1.4,4.4,0.8,6.9c-0.2,0.9-0.4,1.7-0.8,2.5c-1.7,3.8-4.8,6-9.5,6.7
		c-1.9,0.3-3.8-0.3-5.1-0.8c-3.2-1.3-5.7-3.7-6.8-7.1c-0.3-0.9-0.3-1.8-0.5-3C40.6,74.2,41.1,72.4,41.5,71.3 M130.5,88.3
		c0.6,1.1,1.3,2,2.2,2.7c3.4,2.9,9.4,3.9,15.8,3.8c1-1.2-0.1-3.5-1-4.1c-0.9-0.6-2.5-0.3-3.7-0.5c-3.4-0.6-6.8-0.8-7.4-4.3
		c-0.3-1.6,0.4-3.3,0.9-4.4c1.4-3.6,3.3-6.1,5.6-8.8c0.7-0.8,2.5-2,2.8-3c0.1-0.4-0.6-1-0.9-1.3c-0.7-0.7-2.4-3.4-3.4-3.5
		c-0.7,0.4-1.5,0.8-2.2,1.2c-3.6,2.6-6.8,5.8-8.8,10c-0.5,1.1-0.9,2.4-1.1,3.6c-0.5,2.3-0.1,5.8,0.9,7.3
		C129.9,87.4,130.4,88.2,130.5,88.3 M176.1,80c-0.2-1,0.1-2.9-0.4-3.6c-0.4-0.7-4.6-1.8-6-1.8c-0.1,0-0.1,0.1-0.2,0.1
		c-0.7,1.2,0.2,5.2,0.5,6.6c0.5,3.1,1,6.2,1.5,9.3c0.5,2.3,0.9,4.6,1.4,7c0.6,0.4,3.2,0.9,3.8,0.1c0.3-0.5,0.2-1.6,0.2-2.3
		c-0.1-1.9-0.2-3.8-0.2-5.6C176.2,86.5,176.6,83.1,176.1,80 M162.6,95.7c-0.1,0.5-0.3,1.5-0.1,2.1c0.2,0.4,0.6,0.5,1,0.6
		c1.8-0.1,2.7-3.6,3.1-5.4c1-3.9,1.8-11.7,1-16.4c-0.4-2.4-0.5-4.4-1.9-5.7c-1.2-1.2-2.9-1.6-4.9-2.1c-1.6-0.3-3.6-0.2-4.5-1.2
		c-0.2-0.3-0.1-2.8-0.1-3.4c0-2.2-0.1-4.3-0.1-6.5c-0.1-0.9,0.1-2-0.2-2.8c-0.3-0.6-1.4-0.5-2-0.7c-1.5-0.4-2.3-1.7-4.1-1.7
		c-0.3,0.1-0.6,0.2-0.9,0.3c-1.1,0.7-0.7,4-0.7,5.7c0,5.1,0.1,10.2,0.1,15.3c-2.2,2.1-4.4,4.2-6.6,6.3c0.2,1.1,1.7,3.4,2.7,3.7
		c0.5-1.3,2.7-3.6,4.5-3.4c0.7,1.1,0.7,4.7,1,6.2c0.8,4,1.5,8,2.8,11.3c0.6,0.2,1.5,0.6,2.2,0.4c0.3-0.6-0.2-4.6-0.3-5.6
		c-0.1-1.2-0.1-2.5-0.2-3.7c-0.4-2.8-0.3-7.9,0.2-10.5c0.4-2,0.6-5.3,3.3-4.9c3.9,0.7,4.5,4.5,5.1,8.5c0,1.1,0.1,2.1,0.1,3.2
		c0.2,1.5,0.1,3.6-0.1,5C162.8,92.3,162.7,94,162.6,95.7 M181.2,17.2c-0.7,0.3-1.3,0.3-1.8,0.6c-2.6,1.9-2.6,6.9-3.3,10.7
		c-1,5.6-2,11.3-3,16.9h-1c-0.7-2-1.4-4.1-2-6.1c-1.3-3.2-2.5-6.5-3.9-9.6c-0.9-2-2.4-6-5.2-3.8c-0.6,0.5-0.9,1.1-1.3,1.7
		c0.1,0.7,0.5,1.1,0.8,1.7c0.7,1.5,1.4,3.1,2.1,4.6c1.5,3.5,2.8,7.1,3.9,11c0.9,3.1,1.1,6.3,1.7,9.8c0.1,1.8,0.1,3.6,0.2,5.3
		c0.4,0.9,3.3,1.3,4.4,0.7c0.9-0.5,2.1-5.1,2.6-6.3c3.8-11.2,7.6-22.5,11.4-33.7C185.8,18.8,184.1,17.1,181.2,17.2 M207,84.5
		c0.1-4.3,0.2-8.6,0.3-12.9c0-2.3,0.1-4.6,0.1-6.9c0-1.6,0.1-3.1,0.1-4.7c0-2.4,0.1-4.9-0.1-7.1c-0.5-0.3-1.1-0.3-2-0.3
		c-0.5,0.1-1,0.1-1.5,0.1c-1.2,0.2-2.1,0.7-2.7,1.5c-0.8,1.3-0.4,7.5,0,9.4c0.2,3.5,0.4,7,0.6,10.4c0.3,1.6,0.5,5.4,0.1,7
		c-0.5,2.6-2.1,5.3-3.9,6.7c-3.5,2.8-4.9-3.5-4.2-7.2c0.5-3.1,1.2-5.6,2.7-7.7c0.8-1,2.8-1.9,3.2-3c0.6-1.6-0.4-4.4-2-4.1
		c-1.3,0.2-3.4,2.3-4.2,3.2c-2.3,2.4-4,4.9-4.8,8.7c-0.2,1.1-0.1,2.2-0.3,3.5c-0.2,1.3,0,3.1,0.2,4.3c0.3,1.5,0.9,2.7,1.5,3.9
		c0.9,2,1.9,4,3.4,5.5c0.4,0.4,1,1.3,2,1.1c1.7-0.4,3.4-2.6,4.4-3.8c0.8-1,1.9-1.9,3-2.6c0.5,3-0.4,8.4,3.7,7.6
		c0.5-0.8,0.1-2.5,0.3-3.6C206.8,90.6,206.9,87.6,207,84.5 M177.2,65.7c-0.7-1.8-2.5-2.6-5.1-2.6c-0.3,0.1-0.7,0.2-1.1,0.3
		c-1.3,0.5-2.6,1.8-3,3.2c-1,3.3,2.2,6.7,5.6,5.9C176.2,71.9,178.5,68.9,177.2,65.7 M204.6,32.4c0.5-1.1-1-3.7-1.5-4.4
		c-1.8-2.4-7.1-6.2-11.4-6.1c-4.4,2.1-6.2,6.6-6.1,13.2c-1.2,0.5-2.8,1.2-3.5,2.3c0,1.8,1.7,4.1,2.5,5.2c1,0,1.8-0.5,2.6-0.9
		c1.9,3.6,5.6,8.7,9.9,9.9c4.9,1.4,8.8-5.3,10.3-8.1c0.3-0.7,1.8-3.3,1.6-4.1c-0.2-1-2.8-2.6-3.7-1.4c-1.4,1.8-2.4,7.8-4.6,8.4
		c-0.9,0.2-1.8-0.4-2.4-0.6c-0.6-0.4-1.2-0.8-1.8-1.2c-0.7-0.5-1.6-1.1-2.1-1.9c-0.6-0.8-1.3-2.8-0.5-4
		C197.6,36.6,201.1,34.5,204.6,32.4 M192.6,33.1c-0.8-2.5-1-4.5,1.1-5.9c1.9,0,3.2,2.1,3.8,3.4C196.6,32,195,33.2,192.6,33.1
		 M186,58.3c0.4-2.1,0.9-4.2,1.3-6.3c0.3-1.2,0.6-2.4,0.9-3.5c0.2-1.3-2-1.5-3.1-1.6c-2.9,1.2-3.6,4.6-4.4,7.8
		c-2,8-1.9,20.7-0.3,29.2c0.5,2.5,0.8,5,1.4,7.3c0.2,0.8,0.3,2.3,0.9,2.8c0.7,0.6,2.9,0.3,3.6,0c0.2-0.9,0-2.2-0.2-3.1
		c-0.1-1.4-0.3-2.7-0.4-4.1c-0.6-3.5-0.2-7.2-0.8-10.8c0-1.2-0.1-2.4-0.1-3.6c0-0.7,0-1.3,0-2c0.3-1.6-0.1-3.2,0.2-4.7
		C185.5,63.1,185.5,60.7,186,58.3 M146.6,34.8c1.3-1,2.4-2.2,3.7-3.2c1.8-1.4,3.8-2.8,5.2-4.5c0.4-0.5,0.9-1.1,1-1.8
		c0.4-1.6-0.4-5.5-1.2-5.9c-0.1-0.1-0.4-0.1-0.6-0.1c-0.6,0.3-1.3,0.5-1.9,0.8c-5.6,3.3-12,8-13.8,15.1c-1.2,4.8,0.9,10.4,2.8,12.8
		c0.5,0.7,2.1,2.2,3.4,2.1c1-0.1,1.6-0.9,2.3-1.4c1.5-1.2,2.8-2.5,4-4c0.4-0.4,0.8-0.9,1.2-1.3c0.1-0.1,0.1-0.1,0.2-0.2
		c1.8,2.8,3.6,5.5,5.4,8.3c0.4,0.6,1.2,2.7,2.3,2.5c2.1-0.4,2.8-2.6,4.1-3.8V50c-1.1-1.1-2.6-1.8-3.6-3.1c-1.6-2-3-4.5-4.1-7
		c-0.4-1.1-0.7-2.2-1.1-3.3c-0.5-1.2-1.3-3.3-3.2-2.5c-1.7,0.7-2,3.6-2.8,5.3c-0.9,2.2-3.4,4.8-5.7,5.6c-1-1.1-1.2-5.7-0.4-7.1
		C144.5,36.8,145.7,35.6,146.6,34.8 M214,65.6c1.2-0.6,1.3-2.1,1.8-3.5c0.8-2.3,3.8-7.9-1.1-7.7c-0.6,0.3-1.1,0.3-1.5,0.7
		c-1.8,1.4-2.3,4.5-2.7,7.2c-0.3,1.5-0.4,4,0.8,4.3C211.9,66.8,213.5,65.9,214,65.6 M230.1,57.2c-0.2,0-0.4,0-0.5,0
		c-1.4,0.6-2.8,0.8-4.1,1.5c-5.1,3-8.7,7-10.2,13.7c-0.4,1.7-0.8,4.4-0.4,6.5c0.3,1.6,0.4,3.1,0.7,4.5c0.6,2.5,1.8,5.8,0.9,8.8
		c-0.8,2.8-2.7,4.5-4.3,6.6c-0.8,0.9-1.6,2-2.6,2.8c-0.9,0.7-2,1.5-2.6,2.5c0,1.8,2.9,3.4,4.2,4.1c0.4,0.2,1.4,0.8,2.1,0.6
		c0.9-0.3,2.2-1.9,3-2.5c1.3-1.1,2.4-2.4,3.7-3.5c1.4-1.1,2.9-2.5,3.9-4.1c1.8-2.8,0.5-5.7-1-7.8c-1.5-2.2-2.9-4.4-3.8-7.3
		c-0.3-1-0.3-1.9-0.5-3c-0.2-0.9-0.3-2.1-0.1-3c0.8-4.7,3.5-7.4,6.6-9.7c1.4-1.1,3.5-2.3,4.3-3.9c0.7-1.2,1.1-2.9,0.8-4.7
		C230.3,58.5,230.7,57.6,230.1,57.2 M229.9,38.6c-0.4-1-0.7-2.5-1.5-3c-0.8-0.3-2,0.3-2.5,0.6c-2.2,1.1-1.9,2.8-3.1,4.7
		c-0.4,0.4-0.7,0.8-1.1,1.1c-0.6,0.6-2.3,2.2-3.3,0.9c-0.8-1.1-0.1-3.1,0.3-4c1.3-3.2,3.6-5.7,7.1-6.7c1-0.3,4.8-0.1,5.2-0.7
		c0.5-0.6,0-1.7-0.3-2.1c-1-1.3-3.2-1.6-5.6-1.5c-0.4,0-0.8,0.1-1.2,0.1c-0.8,0.2-1.6,0.4-2.4,0.7c-3.7,1.5-6.7,4.7-8.2,8.3
		c-2.1,4.8-0.1,7.3,2.5,10.1c0.7,0.8,2.3,2.7,4.1,2.3c0.5-0.1,1-0.7,1.4-1c1.3-1,2.6-2,3.9-3.1c1.6,1.2,4.2,5.1,6.3,5.3
		c0.8-0.6,1.2-2.5,0.9-4C231.9,43.9,230.9,41.2,229.9,38.6 M222.7,115c-0.7,0.1-1.9,1.7-2.5,2.2c-2.8,2.3-5.3,4.9-8.2,7.1
		c-0.6,0.4-2.4,2.1-3.4,1.9c-1-0.2-1.1-1.5-1.4-2.5c-0.5-2-1.4-3.9-1.3-6.3c1.6-1.8,6.6-0.7,5.5-4.8c-0.2-0.4-0.3-0.8-0.5-1.3
		c-1.4-0.9-4.9,0.6-6-0.7c-0.5-0.7-0.3-3.6-0.5-4.6c-0.9-4.3-2.3-7.9-7.5-7.8c-0.8,0.6-0.9,2-0.6,3.3c0.4,2.2,0.6,4.4,0.6,7
		c0,0.7,0.1,1.5-0.1,2c-0.9,2-6.7-0.2-7.7,2.1c-0.3,0.7-0.2,2.1,0,2.7c0.2,1,0.5,2.2,1.2,2.7c1.1,0.7,6.1-0.2,7.8,0
		c0.7,1,0.7,2.8,1,4.1c0.9,3.5,1.8,9.2,4.8,10.7c2,1,4.3-0.7,5.5-1.5c3-1.9,5.4-4.3,8.2-6.4c0.9-0.9,1.9-1.8,2.8-2.7
		c1.1-1,2.2-2,3.4-3c0.3-0.3,1-0.7,0.9-1.3C224.4,117,223.5,114.9,222.7,115 M100.6,77c-0.1-1.4-0.2-2.8-0.3-4.2
		c-0.9-5.2-1.6-11.8-5.4-14.1c-0.5-0.3-1-0.3-1.7-0.5c-0.4,0-0.8,0.1-1.1,0.1c-1,0.2-1.8,0.7-2.3,1.4c-0.8,1.2-1.2,4.3-0.9,6.4
		c0,0.7,0,1.4,0,2.1c0,1,0,2.1,0,3.1c-0.2,1-0.1,2-0.3,2.9c-0.5,2.3-1.3,4.3-2.3,6.2c-2.9,5.8-6.7,10.3-11.7,13.9
		c-2,1.5-4.2,2.7-6.4,4.1c-0.7,0.4-2.3,1.2-2.6,1.9c-0.4,0.9,0.1,3.3,0.2,4.3c0.2,2.5,0.4,4.9,0.6,7.4c0.1,1.1,0.1,2.2,0.2,3.4
		c0,0.9,0,1.8,0,2.6c0,1.8,0.1,3.7-0.2,5.3c-0.1,1.4-0.3,2.8-0.4,4.2c-0.8,4.5-1.5,8.9-2.9,12.9H81c0.5-0.3,1.7-2.7,2.1-3.3
		c1.6-2.7,3.1-5.5,4.6-8.3c3.5-6.4,6.5-13.3,8.9-20.8c0.7-2.3,1.2-4.7,1.9-7.1c0.9-3.6,1.1-7.4,1.8-11.4c0.1-1.6,0.2-3.2,0.3-4.8
		c0-0.9,0-1.8,0.1-2.7v-3.2C100.7,78.3,100.7,77.6,100.6,77 M155.7,127.6c-3.3-0.8-4.4-2.2-5.9-4.7c-0.5-0.8-1.3-1.9-1-3.4
		c0.3-1.7,1.6-2,2.9-2.8c1.9-1.1,3.8-2.3,5.6-3.5c0.8-0.5,1.8-0.9,2.3-1.7c0-0.5-1-2.4-1.3-3.1c-1.1-2.8-1.6-5.2-4.6-6.1
		c-0.8-0.2-1.7-0.2-2.6-0.3c-0.4,0.1-0.9,0.1-1.3,0.1c-1.1,0.3-2.3,0.6-3.1,1.1c-2.5,1.7-2.9,7-2.8,11.2c-2.1,2-1.3,4.1-0.3,6.6
		c0.5,0.3,0.9-0.1,1.2-0.5c0,0,0-0.1,0-0.1c0.9,6.9,3.9,11.7,10.1,13.6c1.6,0.5,3.9,1,5.9,0.7c0.2-0.2,0.3-0.4,0.4-0.8
		c0.2-0.8-0.2-5.6-0.6-5.8C160,127.8,156.5,127.8,155.7,127.6 M147.9,107.7c0.1-0.8-0.2-1.9,0.5-2.2c0.1-0.1,0.3-0.1,0.4-0.2
		c2.4-0.1,5.1,2.6,4.1,5.1c-0.4,1-3.2,2.1-4.7,2.1C147.3,111.7,147.8,109,147.9,107.7 M121.6,72.6c2.2,0.4,6.7-2.8,8-3.7
		c3.6-2.7,6.7-6.3,8.1-11.2c0.3-0.9,0.3-1.8,0.5-2.9c0.2-1.3,0.1-3-0.1-4.2c-1.2-4.9-2.9-8.3-3.8-13.6c-0.4-2.2,0.7-3.9,1.5-5.1
		c1.2-1.8,2.8-3.7,4.5-5.1c1.1-0.8,2.4-2,3.1-3.1c0.3-0.4,0.1-1.2,0-1.6c-0.5-1.7-1.5-3.4-3.7-3.4c-4.9,2.7-10.1,4.8-12.4,10.1
		c-0.7,1.6-1.4,4.1-1,6.5c0.2,1.1,0.3,2.1,0.6,3c1.3,3.4,4,5.3,5.3,8.7c0.5,1.3,0.8,3.7,0.3,5.3c-1.3,3.4-5.6,5.3-8.7,6.9
		c-1.3,0.6-2.8,1-3.6,2.1c-1.2,1.7-0.6,5.5-0.1,7.6C120.4,70.4,120.7,71.7,121.6,72.6 M140.2,99.8c-0.5-0.4-1.1-0.7-1.8-1
		c-4-1.3-6.2,2.3-8.2,3.9c-0.5,0.4-2,1.4-2.7,0.5c-1.7-2-1.5-10-1.5-14c0-1.3,0-2.6,0-3.9c-0.4-1.6-3.7-3.6-5.9-3.6
		c-0.1,0.1-0.3,0.1-0.5,0.2c-0.3,0.3-0.4,2.7-0.3,3.5c0.6,3.4,0.2,6.8,0.8,10.1c0.3,2.5,0.6,4.9,1,7.4c2,10.6,3.2,22.3,9.1,29.1
		c0.1,0,0.2,0,0.2,0c0.5-0.3,0.3-1.6,0.3-2.3c-0.2-1.9-0.4-3.7-0.6-5.6c-0.5-3-0.9-6-1.4-9c-0.3-1.4-0.8-3.5-0.4-5.1
		c0.6-2.4,3.8-4.9,6.2-5.2c1.4,1,1,3.3,1.3,5.3c0.3,1.5,0.3,4.4,0,6c0,0.9,0,1.7,0,2.6c-0.2,2.7-0.4,5.3-0.6,8
		c-0.2,1.4-0.8,5.4-0.3,6.1c0.2,0.3,0.9,0.5,1.4,0.6c2,0.3,3.8-1.6,4.3-2.9c0.9-2.2,0-5.8,0.5-8.5c0.1-4.4,0.2-8.8,0.3-13.2
		c0-2.5,0.1-4.9,0.1-7.4C141.4,100.7,140.7,100.2,140.2,99.8 M41,140.5h8c0.5-1.2,0.7-2.5,1-3.8c0.8-2.8,1.4-5.9,1.5-9.3
		c0-1.7,0-3.3-0.2-4.8c-0.1-0.5-0.1-0.9-0.2-1.4c-2.6,5.2-5.6,9.9-8.9,14.4c-0.9,1.2-1.8,2.3-2.6,3.4c-0.4,0.5-0.8,0.9-1.1,1.4
		C38.6,140.6,40.6,140.5,41,140.5 M174.2,124.3c0.4-2.5,0.8-5,1.1-7.5c0.4-1.7,0.9-3.9,0.5-6c-1-5.3-7.1-11.9-14-9.2
		c-1.1,0.4-1.9,1-2.7,1.6c0.1,0.9,1.3,2,2.1,2.2c1.8-1.1,5.4-2.2,7-0.2c0.4,0.5,1.2,1.4,0.6,2.3c-0.7,1.1-3.4,1.9-4.6,2.6
		c-3.2,1.8-5.1,4.2-6,8.4c-0.3,1.4-0.5,3.6,0,4.9c1.1,2.5,4.7,2.2,7.2,3.3c1.6,0.7,0.8,2.1,1.7,3.3c0.5,0.7,3.7,2.4,5,1.7
		c0.9-0.4,1.3-2.1,1.2-3.5c1.2,0,3.3,0.5,4-0.4c0.3-0.4,0.5-1.1,0.4-1.7C177.4,124.3,176,124.8,174.2,124.3 M168.6,117
		c0,2.2-0.3,4.1-0.9,5.6c-1.4,1-5.8-1.4-5.4-3c0.5-2.1,3.9-3.2,5.6-4.1c0.2,0,0.4,0,0.5,0C168.7,115.9,168.6,116.5,168.6,117
		 M193.3,108.6c0.5-0.2,0.7-0.7,0.9-1.3c0.9-2.4-0.6-3.7-2-4.8c-1.4-1.1-3.5-2-5.6-1.1c-0.9,0.5-1.9,1.1-2.8,1.6
		c-1.4,0.4-1.5-1.5-2.3-1.9c-0.4-0.2-0.9-0.2-1.5-0.2c-0.8,0.3-2.4,1-2.7,1.7c-0.4,1,0.3,4.3,0.5,5.4c0.9,4.8,1.2,9.6,2.3,14.1
		c0.6,2.6,0.6,5.9,2.8,7c0.4,0,0.5-0.1,0.7-0.2c0-5.5-0.5-11.6,0.5-16.4c0.5-2.4,1.1-4.8,3.1-5.6c1.3-0.5,3.5-0.2,4.4,0.5
		C192,107.7,192.4,108.8,193.3,108.6"/>
	<path fill-rule="evenodd" clip-rule="evenodd" fill="#FF0000" d="M60.9,101c-0.4-1.4-1.2-2.4-2.5-2.9c-2.1-0.8-4.8,0.4-5.5,1.9
		c0,0,0,0-0.1,0c-0.7-1.4-2.1-2.3-4.2-2.2c-0.3,0.1-0.6,0.1-1,0.2c-0.9,0.3-1.7,0.9-2.2,1.6c-0.9,1.3-1.2,3.8-0.5,5.6
		c1.1,2.7,3.1,4.6,5.2,6.5c0.8,0.7,1.8,1.7,2.8,2.1c2.7-1.9,5.8-5.2,7.3-8.2C60.8,104.5,61.4,102.7,60.9,101"/>
</g>
</svg>
